<svg xmlns="http://www.w3.org/2000/svg" viewBox="0 0 512 512">
  <defs>
    <linearGradient id="screenGlow" x1="0%" y1="0%" x2="100%" y2="100%">
      <stop offset="0%" style="stop-color:#2a2a2a"/>
      <stop offset="100%" style="stop-color:#1a1a1a"/>
    </linearGradient>
    <filter id="glow">
      <feGaussianBlur stdDeviation="4" result="coloredBlur"/>
      <feMerge>
        <feMergeNode in="coloredBlur"/>
        <feMergeNode in="SourceGraphic"/>
      </feMerge>
    </filter>
    <filter id="strongGlow">
      <feGaussianBlur stdDeviation="8" result="coloredBlur"/>
      <feMerge>
        <feMergeNode in="coloredBlur"/>
        <feMergeNode in="coloredBlur"/>
        <feMergeNode in="SourceGraphic"/>
      </feMerge>
    </filter>
  </defs>

  <!-- Background -->
  <rect width="512" height="512" rx="90" fill="#18181b"/>

  <!-- Outer frame -->
  <rect x="20" y="20" width="472" height="472" rx="70" fill="none" stroke="#f59e0b" stroke-width="8" opacity="0.6"/>

  <!-- Inner screen bezel -->
  <rect x="50" y="50" width="412" height="412" rx="50" fill="url(#screenGlow)" stroke="#f59e0b" stroke-width="4" opacity="0.8"/>

  <!-- Screen background -->
  <rect x="70" y="70" width="372" height="372" rx="35" fill="#0a0a0a"/>

  <!-- Screen scanlines effect -->
  <g opacity="0.15">
    <line x1="70" y1="100" x2="442" y2="100" stroke="#f59e0b" stroke-width="1"/>
    <line x1="70" y1="120" x2="442" y2="120" stroke="#f59e0b" stroke-width="1"/>
    <line x1="70" y1="140" x2="442" y2="140" stroke="#f59e0b" stroke-width="1"/>
    <line x1="70" y1="160" x2="442" y2="160" stroke="#f59e0b" stroke-width="1"/>
    <line x1="70" y1="180" x2="442" y2="180" stroke="#f59e0b" stroke-width="1"/>
    <line x1="70" y1="200" x2="442" y2="200" stroke="#f59e0b" stroke-width="1"/>
    <line x1="70" y1="220" x2="442" y2="220" stroke="#f59e0b" stroke-width="1"/>
    <line x1="70" y1="240" x2="442" y2="240" stroke="#f59e0b" stroke-width="1"/>
    <line x1="70" y1="260" x2="442" y2="260" stroke="#f59e0b" stroke-width="1"/>
    <line x1="70" y1="280" x2="442" y2="280" stroke="#f59e0b" stroke-width="1"/>
    <line x1="70" y1="300" x2="442" y2="300" stroke="#f59e0b" stroke-width="1"/>
    <line x1="70" y1="320" x2="442" y2="320" stroke="#f59e0b" stroke-width="1"/>
    <line x1="70" y1="340" x2="442" y2="340" stroke="#f59e0b" stroke-width="1"/>
    <line x1="70" y1="360" x2="442" y2="360" stroke="#f59e0b" stroke-width="1"/>
    <line x1="70" y1="380" x2="442" y2="380" stroke="#f59e0b" stroke-width="1"/>
    <line x1="70" y1="400" x2="442" y2="400" stroke="#f59e0b" stroke-width="1"/>
    <line x1="70" y1="420" x2="442" y2="420" stroke="#f59e0b" stroke-width="1"/>
  </g>

  <!-- RIFF-BOY Text with strong glow -->
  <g filter="url(#strongGlow)" fill="#f59e0b">
    <!-- RIFF - Row 1 -->
    <text x="256" y="215" font-family="monospace, 'Courier New'" font-size="115" font-weight="bold" text-anchor="middle" letter-spacing="-5">RIFF</text>

    <!-- BOY - Row 2 -->
    <text x="256" y="350" font-family="monospace, 'Courier New'" font-size="115" font-weight="bold" text-anchor="middle" letter-spacing="-5">BOY</text>
  </g>

  <!-- Decorative line between text -->
  <rect x="115" y="240" width="282" height="5" fill="#f59e0b" opacity="0.4" filter="url(#glow)"/>

  <!-- Alert indicator - small warning triangle -->
  <g transform="translate(400, 110)" filter="url(#glow)">
    <path d="M 0 -18 L 16 12 L -16 12 Z" fill="none" stroke="#ef4444" stroke-width="3"/>
    <text x="0" y="6" font-family="monospace" font-size="18" font-weight="bold" text-anchor="middle" fill="#ef4444">!</text>
  </g>

  <!-- Version text -->
  <text x="256" y="400" font-family="monospace" font-size="20" fill="#f59e0b" text-anchor="middle" opacity="0.6" filter="url(#glow)">v0.1.0</text>

  <!-- Corner decorations -->
  <g fill="#f59e0b" opacity="0.5">
    <rect x="85" y="85" width="25" height="4"/>
    <rect x="85" y="85" width="4" height="25"/>

    <rect x="402" y="85" width="25" height="4"/>
    <rect x="423" y="85" width="4" height="25"/>

    <rect x="85" y="423" width="25" height="4"/>
    <rect x="85" y="398" width="4" height="25"/>

    <rect x="402" y="423" width="25" height="4"/>
    <rect x="423" y="398" width="4" height="25"/>
  </g>
</svg>
